HIERARCHY
ROOT Hips
{
	OFFSET 0.00000 0.00000 0.00000
	CHANNELS 6 Xposition Yposition Zposition Zrotation Yrotation Xrotation 
	JOINT LHipJoint
	{
		OFFSET 0 0 0
		CHANNELS 3 Zrotation Yrotation Xrotation
		JOINT LeftUpLeg
		{
			OFFSET 1.53794 -1.55850 0.93568
			CHANNELS 3 Zrotation Yrotation Xrotation
			JOINT LeftLeg
			{
				OFFSET 2.28545 -6.27922 0.00000
				CHANNELS 3 Zrotation Yrotation Xrotation
				JOINT LeftFoot
				{
					OFFSET 2.37329 -6.52057 0.00000
					CHANNELS 3 Zrotation Yrotation Xrotation
					JOINT LeftToeBase
					{
						OFFSET 0.14846 -0.40788 2.09160
						CHANNELS 3 Zrotation Yrotation Xrotation
						End Site
						{
							OFFSET 0.00000 -0.00000 1.07536
						}
					}
				}
			}
		}
	}
	JOINT RHipJoint
	{
		OFFSET 0 0 0
		CHANNELS 3 Zrotation Yrotation Xrotation
		JOINT RightUpLeg
		{
			OFFSET -1.78290 -1.55850 0.93568
			CHANNELS 3 Zrotation Yrotation Xrotation
			JOINT RightLeg
			{
				OFFSET -2.24144 -6.15831 0.00000
				CHANNELS 3 Zrotation Yrotation Xrotation
				JOINT RightFoot
				{
					OFFSET -2.35091 -6.45907 0.00000
					CHANNELS 3 Zrotation Yrotation Xrotation
					JOINT RightToeBase
					{
						OFFSET -0.14428 -0.39641 2.07944
						CHANNELS 3 Zrotation Yrotation Xrotation
						End Site
						{
							OFFSET -0.00000 -0.00000 1.06864
						}
					}
				}
			}
		}
	}
	JOINT LowerBack
	{
		OFFSET 0 0 0
		CHANNELS 3 Zrotation Yrotation Xrotation
		JOINT Spine
		{
			OFFSET -0.08841 2.11430 -0.15818
			CHANNELS 3 Zrotation Yrotation Xrotation
			JOINT Spine1
			{
				OFFSET -0.00033 2.12605 -0.08097
				CHANNELS 3 Zrotation Yrotation Xrotation
				JOINT Neck
				{
					OFFSET 0 0 0
					CHANNELS 3 Zrotation Yrotation Xrotation
					JOINT Neck1
					{
						OFFSET 0.04431 1.59447 0.43193
						CHANNELS 3 Zrotation Yrotation Xrotation
						JOINT Head
						{
							OFFSET 0.00455 1.62017 -0.58852
							CHANNELS 3 Zrotation Yrotation Xrotation
							End Site
							{
								OFFSET -0.00920 1.72955 -0.25850
							}
						}
					}
				}
				JOINT LeftShoulder
				{
					OFFSET 0 0 0
					CHANNELS 3 Zrotation Yrotation Xrotation
					JOINT LeftArm
					{
						OFFSET 2.86490 1.49927 -0.33774
						CHANNELS 3 Zrotation Yrotation Xrotation
						JOINT LeftForeArm
						{
							OFFSET 4.87408 -0.00000 0.00000
							CHANNELS 3 Zrotation Yrotation Xrotation
							JOINT LeftHand
							{
								OFFSET 2.76729 -0.00000 0.00000
								CHANNELS 3 Zrotation Yrotation Xrotation
								JOINT LeftFingerBase
								{
									OFFSET 0 0 0
									CHANNELS 3 Zrotation Yrotation Xrotation
									JOINT LeftHandIndex1
									{
										OFFSET 0.98922 -0.00000 0.00000
										CHANNELS 3 Zrotation Yrotation Xrotation
										End Site
										{
											OFFSET 0.79753 -0.00000 0.00000
										}
									}
								}
								JOINT LThumb
								{
									OFFSET 0 0 0
									CHANNELS 3 Zrotation Yrotation Xrotation
									End Site
									{
										OFFSET 0.80972 -0.00000 0.80972
									}
								}
							}
						}
					}
				}
				JOINT RightShoulder
				{
					OFFSET 0 0 0
					CHANNELS 3 Zrotation Yrotation Xrotation
					JOINT RightArm
					{
						OFFSET -2.94414 1.45463 -0.25291
						CHANNELS 3 Zrotation Yrotation Xrotation
						JOINT RightForeArm
						{
							OFFSET -4.71404 -0.00000 0.00000
							CHANNELS 3 Zrotation Yrotation Xrotation
							JOINT RightHand
							{
								OFFSET -2.83468 -0.00000 0.00000
								CHANNELS 3 Zrotation Yrotation Xrotation
								JOINT RightFingerBase
								{
									OFFSET 0 0 0
									CHANNELS 3 Zrotation Yrotation Xrotation
									JOINT RightHandIndex1
									{
										OFFSET -0.86820 -0.00000 0.00000
										CHANNELS 3 Zrotation Yrotation Xrotation
										End Site
										{
											OFFSET -0.69996 -0.00000 0.00000
										}
									}
								}
								JOINT RThumb
								{
									OFFSET 0 0 0
									CHANNELS 3 Zrotation Yrotation Xrotation
									End Site
									{
										OFFSET -0.71065 -0.00000 0.71065
									}
								}
							}
						}
					}
				}
			}
		}
	}
}
MOTION
Frames: 15
Frame Time: .0083333
14.0229 15.2198 -1.9536 -174.2430 -12.1377 -173.6720 0.0000 0.0000 0.0000 -14.3019 -8.6568 -46.0673 20.3458 19.9971 91.0111 -0.9830 19.0874 1.7178 0.0593 -1.5718 -4.3237 0.0000 0.0000 0.0000 22.4837 9.1258 -2.7168 -4.2004 -12.4225 37.2433 0.8408 -16.1752 -8.7336 -4.0388 12.2118 -36.4855 2.0569 3.6110 2.8832 0.4129 4.8017 1.7648 -0.8403 2.3900 0.3325 4.4560 4.0458 -30.1246 -2.9699 2.2196 42.6401 -2.3179 0.2597 24.2647 -0.0000 0.0000 0.0000 -72.4633 26.8554 52.5445 93.2057 -59.9611 -62.7758 -0.0000 -0.0000 18.7904 16.4595 8.8362 2.5985 -7.1250 0.0000 -0.0000 -9.0504 39.0349 1.3430 -0.0000 0.0000 0.0000 78.9952 -5.4055 42.3181 -81.0215 59.6932 -52.2324 0.0000 0.0000 9.8668 -13.0455 -2.8398 0.6577 7.1250 -0.0000 -0.0000 10.9568 -32.7555 3.3390
13.9151 15.3578 -2.2992 -174.2110 -12.7943 -173.3250 0.0000 0.0000 0.0000 -14.3601 -8.8149 -47.2886 19.2907 19.9879 87.9258 -0.9787 18.9242 1.4468 0.0640 -1.6325 -4.4910 0.0000 0.0000 0.0000 22.6135 8.1980 -1.0633 -3.7215 -11.7803 34.9592 0.8065 -15.6699 -5.4121 -4.0158 12.1814 -36.3766 2.1068 3.9156 2.4273 0.2562 5.2166 1.4985 -1.0125 2.6035 0.3449 4.2311 3.8219 -29.9967 -2.5309 1.6446 43.0963 -2.2255 0.0641 24.5868 -0.0000 -0.0000 0.0000 -71.7020 27.4334 53.1045 94.0023 -59.9394 -63.4654 -0.0000 -0.0000 18.5130 16.3679 8.8037 2.5738 -7.1250 0.0000 -0.0000 -9.1232 38.9946 1.3631 -0.0000 -0.0000 0.0000 78.9739 -5.2852 42.7610 -82.0497 59.7598 -53.1204 0.0000 0.0000 10.1934 -12.6580 -2.5580 0.5743 7.1250 -0.0000 -0.0000 11.2280 -32.4598 3.5061
13.8025 15.5004 -2.6488 -174.1950 -13.5178 -172.9530 0.0000 0.0000 0.0000 -14.4815 -8.9781 -48.3301 18.1448 19.9173 84.5685 -0.9538 18.6336 1.3011 0.0657 -1.6542 -4.5508 0.0000 0.0000 0.0000 22.6851 7.2041 0.5191 -3.2498 -11.0888 32.5801 0.7100 -15.1689 -1.7400 -3.9601 12.1072 -36.1121 2.1218 4.1601 1.9349 0.0927 5.5486 1.2119 -1.1654 2.7743 0.3542 4.0334 3.6262 -29.8261 -2.0949 1.0880 43.5374 -2.1319 -0.1226 24.9007 0.0000 0.0000 0.0000 -71.0081 28.0834 53.5704 94.8555 -59.9107 -64.2037 -0.0000 -0.0000 18.1570 16.2478 8.8750 2.5744 -7.1250 0.0000 -0.0000 -9.2380 39.0586 1.3660 0.0000 0.0000 0.0000 78.9359 -5.2402 43.3118 -82.9982 59.8139 -53.9401 0.0000 0.0000 10.2068 -12.3828 -2.2934 0.5034 7.1250 -0.0000 -0.0000 11.4111 -32.1858 3.6422
13.6852 15.6463 -3.0028 -174.2160 -14.2953 -172.5570 0.0000 0.0000 0.0000 -14.6909 -9.1431 -49.1752 16.9193 19.7709 80.9596 -0.9034 18.1583 1.2805 0.0669 -1.6687 -4.5909 0.0000 0.0000 0.0000 22.6849 6.1795 2.0536 -2.7918 -10.3501 30.1180 0.5440 -14.7751 2.1977 -3.8668 11.9811 -35.6650 2.0916 4.3528 1.3989 -0.0821 5.8076 0.9247 -1.2974 2.9075 0.3831 3.8525 3.4478 -29.6405 -1.6656 0.5520 43.9368 -2.0341 -0.2997 25.1878 0.0000 0.0000 0.0000 -70.3681 28.7582 53.9602 95.7475 -59.8748 -64.9754 -0.0000 -0.0000 17.7667 16.1251 9.0245 2.5965 -7.1250 0.0000 -0.0000 -9.3694 39.2025 1.3523 0.0000 0.0000 0.0000 78.8886 -5.2408 43.9080 -83.8510 59.8566 -54.6773 0.0000 0.0000 10.0894 -12.1501 -2.0553 0.4424 7.1250 -0.0000 -0.0000 11.5635 -31.9405 3.7623
13.5648 15.7927 -3.3601 -174.2720 -15.0974 -172.1440 0.0000 0.0000 0.0000 -14.9850 -9.2743 -49.8375 15.6307 19.5360 77.1295 -0.8202 17.4327 1.4538 0.0662 -1.6598 -4.5663 0.0000 0.0000 0.0000 22.6338 5.1842 3.5719 -2.3556 -9.5706 27.5970 0.3038 -14.6015 6.3074 -3.7085 11.7621 -34.8955 2.0091 4.5015 0.8499 -0.2736 6.0056 0.6277 -1.4144 3.0085 0.4043 3.7059 3.2908 -29.4160 -1.2498 0.0382 44.2930 -1.9387 -0.4652 25.4326 -0.0000 -0.0000 0.0000 -69.7518 29.4805 54.2809 96.7054 -59.8294 -65.8037 -0.0000 -0.0000 17.3584 15.9891 9.2022 2.6236 -7.1250 0.0000 -0.0000 -9.5177 39.3737 1.3337 -0.0000 -0.0000 0.0000 78.8488 -5.3069 44.5274 -84.6469 59.8914 -55.3658 0.0000 0.0000 9.9332 -11.8787 -1.8214 0.3831 7.1250 -0.0000 -0.0000 11.7468 -31.6989 3.8939
13.4425 15.9365 -3.7194 -174.3750 -15.9039 -171.7160 0.0000 0.0000 0.0000 -15.3735 -9.3735 -50.3185 14.2981 19.2020 73.1129 -0.7063 16.4594 1.8706 0.0661 -1.6584 -4.5626 0.0000 0.0000 0.0000 22.5355 4.2459 5.0872 -1.9505 -8.7623 25.0546 -0.0163 -14.6906 10.4994 -3.4804 11.4348 -33.7606 1.8611 4.6153 0.2945 -0.4793 6.1546 0.3438 -1.5070 3.0838 0.4361 3.5393 3.1330 -29.1642 -0.8241 -0.4589 44.5884 -1.8213 -0.6270 25.6139 -0.0000 0.0000 0.0000 -69.1643 30.2016 54.5429 97.7326 -59.7729 -66.6915 -0.0000 -0.0000 16.9783 15.8578 9.3768 2.6498 -7.1250 0.0000 -0.0000 -9.6623 39.5419 1.3139 -0.0000 0.0000 0.0000 78.8026 -5.4036 45.1702 -85.4004 59.9199 -56.0177 0.0000 0.0000 9.7316 -11.6530 -1.6133 0.3327 7.1250 -0.0000 -0.0000 11.8969 -31.4850 4.0081
13.3186 16.0752 -4.0814 -174.5440 -16.7029 -171.2710 0.0000 0.0000 0.0000 -15.8728 -9.4458 -50.6082 12.9449 18.7622 68.9543 -0.5706 15.2629 2.5032 0.0679 -1.6811 -4.6250 0.0000 0.0000 0.0000 22.3839 3.3876 6.6117 -1.5858 -7.9442 22.5446 -0.4150 -15.0548 14.6741 -3.1586 10.9474 -32.1027 1.6441 4.7115 -0.2712 -0.7119 6.2787 0.0810 -1.5858 3.1455 0.4901 3.3838 2.9700 -28.9463 -0.4134 -0.9441 44.8181 -1.7042 -0.7809 25.7505 -0.0000 0.0000 0.0000 -68.5697 30.8747 54.7972 98.7902 -59.7060 -67.6050 -0.0000 -0.0000 16.6022 15.7608 9.5024 2.6677 -7.1250 0.0000 -0.0000 -9.7688 39.6623 1.2995 -0.0000 0.0000 0.0000 78.7687 -5.5419 45.7868 -86.1553 59.9441 -56.6710 0.0000 0.0000 9.5343 -11.4600 -1.4331 0.2905 7.1250 -0.0000 -0.0000 12.0246 -31.3003 4.1074
13.1941 16.2066 -4.4448 -174.7550 -17.4958 -170.8200 0.0000 0.0000 0.0000 -16.4433 -9.5026 -50.7189 11.5971 18.2151 64.7059 -0.4215 13.8829 3.3509 0.0716 -1.7265 -4.7503 0.0000 0.0000 0.0000 22.2242 2.6278 8.1291 -1.2698 -7.1421 20.1371 -0.8859 -15.6954 18.7693 -2.7682 10.3100 -29.9864 1.3770 4.7938 -0.8355 -0.9555 6.3843 -0.1537 -1.6460 3.1969 0.5672 3.2418 2.8015 -28.7773 -0.0311 -1.4142 44.9955 -1.5972 -0.9269 25.8617 0.0000 -0.0000 0.0000 -67.9688 31.4806 55.0614 99.8914 -59.6271 -68.5554 -0.0000 -0.0000 16.3056 15.6679 9.6129 2.6817 -7.1250 0.0000 -0.0000 -9.8693 39.7676 1.2873 0.0000 -0.0000 0.0000 78.7380 -5.7250 46.3519 -86.9609 59.9651 -57.3684 0.0000 0.0000 9.3531 -11.2897 -1.2689 0.2533 7.1250 -0.0000 -0.0000 12.1364 -31.1324 4.1972
13.0680 16.3296 -4.8084 -174.9880 -18.2641 -170.3610 0.0000 0.0000 0.0000 -17.0535 -9.5494 -50.6726 10.2818 17.5653 60.4262 -0.2706 12.3854 4.3519 0.0771 -1.7911 -4.9286 0.0000 0.0000 0.0000 22.0684 1.9664 9.5859 -1.0074 -6.3866 17.9104 -1.4249 -16.5448 22.7646 -2.3246 9.5118 -27.4099 1.0822 4.8706 -1.4095 -1.1937 6.4837 -0.3512 -1.6817 3.2445 0.6838 3.0570 2.6169 -28.6877 0.3393 -1.8643 45.1360 -1.4797 -1.0716 25.9772 -0.0000 -0.0000 0.0000 -67.4122 31.9744 55.3394 101.0054 -59.5374 -69.5161 -0.0000 -0.0000 16.0821 15.5785 9.7250 2.6963 -7.1250 0.0000 -0.0000 -9.9676 39.8746 1.2739 -0.0000 -0.0000 0.0000 78.6595 -5.9190 46.8843 -87.8364 59.9823 -58.1264 0.0000 0.0000 9.0725 -11.1263 -1.1350 0.2232 7.1250 -0.0000 -0.0000 12.2466 -30.9952 4.2782
12.9405 16.4439 -5.1723 -175.2060 -18.9943 -169.9150 0.0000 0.0000 0.0000 -17.6517 -9.5725 -50.4815 9.0238 16.8230 56.1725 -0.1275 10.8347 5.4358 0.0844 -1.8741 -5.1579 0.0000 0.0000 0.0000 21.9588 1.4069 10.9468 -0.8006 -5.7108 15.9476 -2.0032 -17.6574 26.5513 -1.8986 8.6515 -24.7112 0.7801 4.9479 -1.9944 -1.4090 6.5859 -0.5106 -1.6859 3.2929 0.8419 2.8724 2.4249 -28.6706 0.6576 -2.2812 45.2369 -1.3807 -1.2066 26.0887 0.0000 -0.0000 0.0000 -66.9016 32.3520 55.6371 102.1294 -59.4367 -70.4845 -0.0000 -0.0000 15.9448 15.4880 9.8504 2.7141 -7.1250 0.0000 -0.0000 -10.0696 39.9949 1.2570 0.0000 -0.0000 0.0000 78.5426 -6.1284 47.3790 -88.7767 59.9943 -58.9406 0.0000 0.0000 8.6882 -10.9773 -1.0310 0.2000 7.1250 -0.0000 -0.0000 12.3494 -30.8884 4.3480
12.8116 16.5489 -5.5338 -175.3490 -19.6763 -169.5070 0.0000 0.0000 0.0000 -18.1663 -9.5683 -50.1766 7.8462 16.0049 52.0067 0.0007 9.3184 6.5454 0.0946 -1.9839 -5.4611 0.0000 0.0000 0.0000 21.9448 0.9379 12.1555 -0.6474 -5.1472 14.3288 -2.5814 -19.0590 30.0063 -1.5019 7.7407 -21.9292 0.5303 5.0241 -2.5530 -1.5849 6.6882 -0.6527 -1.6792 3.3409 1.0037 2.6409 2.2304 -28.6786 0.9607 -2.6717 45.3464 -1.2748 -1.3442 26.2310 0.0000 0.0000 0.0000 -66.4643 32.6428 55.9297 103.2460 -59.3265 -71.4454 -0.0000 -0.0000 15.8814 15.3841 9.9617 2.7251 -7.1250 0.0000 -0.0000 -10.1809 40.0995 1.2447 0.0000 0.0000 0.0000 78.3801 -6.3702 47.8719 -89.7576 59.9998 -59.7901 0.0000 0.0000 8.2201 -10.8330 -0.9428 0.1804 7.1250 -0.0000 -0.0000 12.4503 -30.7974 4.4129
12.6811 16.6444 -5.8926 -175.3870 -20.3100 -169.1570 0.0000 0.0000 0.0000 -18.5492 -9.5564 -49.7721 6.7679 15.1333 47.9908 0.1067 7.9411 7.5775 0.1089 -2.1278 -5.8590 0.0000 0.0000 0.0000 22.0370 0.5072 13.1589 -0.5437 -4.7242 13.1236 -3.0967 -20.6721 32.9166 -1.1778 6.8881 -19.3843 0.3627 5.1048 -3.0771 -1.7106 6.7970 -0.7774 -1.6673 3.3922 1.1673 2.3973 2.0400 -28.7126 1.2212 -3.0295 45.4623 -1.1831 -1.4783 26.4006 -0.0000 -0.0000 0.0000 -66.1081 32.8293 56.2279 104.3359 -59.2090 -72.3823 -0.0000 -0.0000 15.8370 15.2939 10.0469 2.7312 -7.1250 0.0000 -0.0000 -10.2755 40.1786 1.2363 -0.0000 -0.0000 0.0000 78.1883 -6.6332 48.3439 -90.7118 59.9981 -60.6164 0.0000 0.0000 7.6878 -10.7538 -0.8882 0.1687 7.1250 -0.0000 -0.0000 12.5048 -30.7414 4.4502
12.5497 16.7292 -6.2484 -175.2900 -20.8983 -168.8980 0.0000 0.0000 0.0000 -18.7489 -9.5543 -49.2722 5.8051 14.2367 44.1942 0.1855 6.8296 8.4296 0.1264 -2.2916 -6.3122 0.0000 0.0000 0.0000 22.2596 0.0915 13.9359 -0.4855 -4.4680 12.3971 -3.4904 -22.2835 35.1002 -0.9393 6.1730 -17.2873 0.3077 5.1934 -3.5276 -1.7852 6.9138 -0.9015 -1.6704 3.4478 1.2973 2.1684 1.8593 -28.7538 1.4350 -3.3568 45.5800 -1.1138 -1.6053 26.5814 -0.0000 0.0000 0.0000 -65.8080 32.9296 56.5397 105.3210 -59.0942 -73.2280 -0.0000 -0.0000 15.8882 15.2320 10.0706 2.7260 -7.1250 0.0000 -0.0000 -10.3335 40.1976 1.2386 -0.0000 0.0000 0.0000 77.9973 -6.9329 48.7727 -91.5727 59.9907 -61.3620 0.0000 0.0000 7.2071 -10.6964 -0.8475 0.1601 7.1250 -0.0000 -0.0000 12.5442 -30.6998 4.4777
12.4178 16.8021 -6.6007 -175.0620 -21.4511 -168.7450 0.0000 0.0000 0.0000 -18.7342 -9.6228 -48.6732 4.9684 13.3481 40.6860 0.2381 6.1100 9.0658 0.1461 -2.4628 -6.7866 0.0000 0.0000 0.0000 22.5941 -0.3572 14.4710 -0.4686 -4.3904 12.1778 -3.7285 -23.5476 36.4447 -0.7962 5.6953 -15.9029 0.3571 5.2795 -3.8974 -1.8015 7.0240 -1.0108 -1.6775 3.5011 1.4024 1.9574 1.6978 -28.7843 1.5995 -3.6441 45.7100 -1.0670 -1.7232 26.7759 0.0000 0.0000 0.0000 -65.5957 32.9428 56.8316 106.2031 -58.9844 -73.9844 -0.0000 -0.0000 16.0286 15.1946 10.0138 2.7038 -7.1250 0.0000 -0.0000 -10.3546 40.1366 1.2569 0.0000 0.0000 0.0000 77.8134 -7.2392 49.1452 -92.2733 59.9805 -61.9686 0.0000 0.0000 6.7908 -10.6681 -0.7914 0.1491 7.1250 -0.0000 -0.0000 12.5588 -30.6434 4.5005
12.2856 16.8615 -6.9502 -174.7380 -21.9651 -168.6990 0.0000 0.0000 0.0000 -18.4952 -9.8295 -47.9653 4.2641 12.5037 37.5381 0.2671 5.9256 9.4766 0.1646 -2.6140 -7.2059 0.0000 0.0000 0.0000 23.0000 -0.8256 14.7795 -0.4918 -4.4962 12.4771 -3.7962 -24.2758 36.9113 -0.7213 5.4270 -15.1307 0.4867 5.3686 -4.1760 -1.7768 7.1349 -1.1080 -1.6940 3.5553 1.4737 1.7302 1.5435 -28.7889 1.7610 -3.9095 45.8374 -1.0118 -1.8390 26.9615 -0.0000 0.0000 0.0000 -65.4655 32.8514 57.1006 106.9020 -58.8926 -74.5831 -0.0000 -0.0000 16.2632 15.1799 9.8709 2.6630 -7.1250 0.0000 -0.0000 -10.3390 39.9905 1.2926 -0.0000 0.0000 0.0000 77.6649 -7.5547 49.4247 -92.7478 59.9715 -62.3795 0.0000 0.0000 6.5461 -10.6552 -0.7296 0.1373 7.1250 -0.0000 -0.0000 12.5607 -30.5818 4.5202
